<svg xmlns="http://www.w3.org/2000/svg" viewBox="0 0 361.702 360.638"><path d="M51.4 158.484c.267-56.185 35.755-108.35 88.877-127.697 54.1-19.702 115.363-3.04 152.21 41.1 20.19 24.187 30.91 55.21 31.06 86.598.052 10.615 16.552 10.636 16.5 0-.303-63.7-40.612-121.3-100.368-143.377-59.432-21.958-128.943-3.15-169.303 45.614C47.585 88.26 35.07 122.724 34.9 158.484c-.052 10.62 16.448 10.632 16.5 0z" fill="#E92E71"/><g fill="#E92E71"><path d="M330.312 291.146c-.292 0-.586-.018-.883-.052-4.115-.483-7.06-4.21-6.576-8.323.294-2.51.444-5.07.444-7.61 0-4.143 3.358-7.5 7.5-7.5s7.5 3.357 7.5 7.5c0 3.122-.184 6.27-.546 9.36-.448 3.817-3.69 6.626-7.44 6.626zM244.673 353.27c-.485 0-.978-.048-1.473-.147-6.03-1.2-11.92-3.11-17.508-5.673-3.765-1.727-5.417-6.18-3.69-9.944 1.728-3.764 6.182-5.414 9.945-3.688 4.526 2.076 9.297 3.622 14.183 4.595 4.062.81 6.7 4.758 5.89 8.82-.71 3.568-3.843 6.036-7.347 6.036zm28.277-.007c-3.504 0-6.637-2.468-7.348-6.036-.81-4.062 1.828-8.012 5.89-8.82 4.88-.972 9.652-2.52 14.18-4.598 3.767-1.728 8.218-.077 9.946 3.687 1.728 3.765.077 8.217-3.688 9.945-5.59 2.566-11.48 4.476-17.508 5.676-.494.1-.987.145-1.472.145zm-67.028-21.748c-2.02 0-4.03-.81-5.51-2.41-4.173-4.515-7.82-9.51-10.842-14.85-2.04-3.604-.77-8.18 2.834-10.22 3.605-2.042 8.18-.772 10.22 2.833 2.453 4.333 5.415 8.39 8.804 12.056 2.812 3.042 2.625 7.787-.417 10.6-1.44 1.332-3.268 1.99-5.088 1.99zm105.773-.012c-1.82 0-3.644-.658-5.086-1.99-3.044-2.81-3.233-7.555-.422-10.598 3.39-3.67 6.35-7.728 8.8-12.062 2.04-3.604 6.615-4.876 10.22-2.836 3.605 2.04 4.875 6.615 2.836 10.22-3.02 5.34-6.665 10.336-10.837 14.854-1.478 1.602-3.492 2.413-5.512 2.413zM187.292 291.146c-3.75 0-6.99-2.81-7.44-6.625-.36-3.084-.545-6.233-.545-9.36 0-4.143 3.358-7.5 7.5-7.5s7.5 3.357 7.5 7.5c0 2.544.15 5.104.444 7.61.484 4.113-2.458 7.84-6.572 8.323-.298.036-.594.053-.886.053z"/></g><path d="M65.604 219.665c-.284 12.617-10.265 23.1-23.1 23.1-12.617 0-23.102-10.486-23.102-23.1 0-12.613 10.484-23.1 23.1-23.1 12.84 0 22.818 10.482 23.102 23.1.217 9.638 15.217 9.672 15 0-.364-16.18-10.176-30.308-25.43-35.918-14.61-5.375-31.898-.52-41.788 11.408-10.157 12.25-11.88 29.913-3.78 43.74 8.21 14.02 24.552 21.045 40.392 18.11 17.863-3.31 30.207-19.588 30.606-37.34.217-9.657-14.783-9.654-15 0zM188.303 242.548c-3.306 3.306-8.715 3.306-12.02 0l-17.33-17.33c-3.307-3.306-3.307-8.715 0-12.02 3.305-3.307 8.714-3.307 12.02 0l17.33 17.33c3.305 3.305 3.305 8.714 0 12.02z" fill="#20245C"/><path d="M177.175 242.295c-3.306-3.306-3.306-8.715 0-12.02l33.472-33.473c3.306-3.306 8.715-3.306 12.02 0 3.307 3.306 3.307 8.715 0 12.02l-33.47 33.473c-3.307 3.306-8.716 3.306-12.022 0zM308.26 194.387c3.307-3.306 8.716-3.306 12.022 0l33.3 33.3c3.307 3.307 3.307 8.716 0 12.022-3.305 3.305-8.714 3.305-12.02 0l-33.3-33.302c-3.307-3.305-3.307-8.715 0-12.02z" fill="#20245C"/><path d="M308.26 239.71c-3.305-3.307-3.305-8.716 0-12.022l33.302-33.3c3.306-3.307 8.715-3.307 12.02 0 3.307 3.305 3.307 8.714 0 12.02l-33.3 33.3c-3.306 3.307-8.715 3.307-12.02 0z" fill="#20245C"/></svg>