<svg xmlns="http://www.w3.org/2000/svg" viewBox="0 0 282.979 348.936"><path d="M228.338 139.906l-.048-.367c-2.254-44.576-40.024-80.584-86.535-82.173l-1.45-.015-.683.03c-46.284 1.687-83.97 37.715-86.207 82.2-.01.106-.02.218-.032.325-1.106 13.274-.487 47.086 28.67 75.448.205.265.438.51.676.744 11.73 11.297 19.34 24.958 22.61 40.596l.396 3.372.02 3.357c0 8.822 7.446 16.098 16.478 16.098l46.14.036v.002c1.13.017 2.04.935 2.04 2.07 0 1.13-.907 2.047-2.035 2.067 0 0-.002 0-.002.003l-58.13.056c-10.54 0-14.8 13.612-14.8 18.83 0 5.523 4.26 18.833 14.8 18.833l53.384-.03c1.153 0 2.087.935 2.087 2.088s-.935 2.088-2.088 2.088l-45.722.036c-4.752 0-8.52 3.713-8.52 8.277 0 4.565 3.943 8.278 8.69 8.278l48.6.127c10.534 0 14.788-13.264 14.788-18.79 0-5.528-4.265-18.677-14.964-18.677l-53.225-.023c-1.18 0-2.135-.955-2.135-2.134s.955-2.133 2.134-2.133l58.12.026c10.54 0 14.804-13.367 14.804-18.894 0-5.523-4.265-18.782-14.964-18.782h-45.954l-2.36-.03-.01-3.332c-.006-.3-.027-.58-.054-.876l-.487-4.156c-.032-.224-.063-.453-.11-.677-3.864-18.872-12.95-35.36-26.987-49.027-.212-.26-.445-.51-.683-.744-23.822-22.932-24.954-50.255-24.155-61.88.053-.335.09-.676.1-1.023 1.42-36.318 32.04-65.836 69.858-67.232l.862.016c37.775 1.294 68.465 30.817 69.878 67.217.01.357.053.713.11 1.054.81 11.64-.332 38.926-24.154 61.853-.16.148-.386.418-.61.667-7.216 7.02-13.206 14.91-17.8 23.467-2.18 4.05-.533 9.052 3.69 11.15 4.195 2.088 9.407.514 11.577-3.545 3.864-7.173 8.922-13.8 15.04-19.693.142-.148.38-.413.597-.667 29.253-28.392 29.85-62.245 28.75-75.514z" fill="#E92E71"/><path d="M141.755 45.164c-4.694 0-8.5-3.806-8.5-8.5V13.57c0-4.695 3.806-8.5 8.5-8.5 4.695 0 8.5 3.805 8.5 8.5v23.094c0 4.694-3.805 8.5-8.5 8.5zM76.613 66.333c-2.628 0-5.22-1.215-6.883-3.504L56.155 44.143c-2.76-3.798-1.917-9.113 1.88-11.873 3.797-2.76 9.113-1.917 11.873 1.88l13.575 18.685c2.76 3.798 1.917 9.113-1.88 11.873-1.51 1.097-3.258 1.625-4.99 1.625zM36.344 121.754c-.87 0-1.756-.135-2.628-.418L11.752 114.2c-4.465-1.452-6.908-6.247-5.458-10.71 1.45-4.467 6.25-6.91 10.71-5.46l21.964 7.138c4.465 1.45 6.908 6.246 5.458 10.71-1.167 3.592-4.5 5.876-8.082 5.876zM14.376 197.39c-3.583 0-6.915-2.283-8.082-5.875-1.45-4.464.993-9.26 5.458-10.71l21.964-7.137c4.464-1.452 9.26.993 10.71 5.458 1.45 4.464-.993 9.26-5.458 10.71l-21.964 7.137c-.872.283-1.757.418-2.628.418zM205.423 66.333c-1.732 0-3.48-.528-4.99-1.624-3.797-2.76-4.64-8.076-1.88-11.874l13.575-18.684c2.76-3.798 8.074-4.64 11.873-1.88 3.8 2.76 4.64 8.075 1.882 11.873L212.307 62.83c-1.664 2.287-4.257 3.503-6.884 3.503zM245.69 121.754c-3.582 0-6.914-2.284-8.08-5.876-1.45-4.464.992-9.26 5.456-10.71l21.965-7.137c4.47-1.45 9.262.994 10.712 5.46s-.993 9.26-5.457 10.71l-21.965 7.136c-.873.283-1.76.418-2.63.418zM267.66 197.39c-.87 0-1.756-.134-2.63-.417l-21.964-7.137c-4.464-1.45-6.907-6.246-5.457-10.71 1.45-4.465 6.245-6.907 10.71-5.458l21.965 7.137c4.464 1.45 6.907 6.246 5.457 10.71-1.167 3.592-4.5 5.876-8.082 5.876z" fill="#20245C"/></svg>