<svg xmlns="http://www.w3.org/2000/svg" viewBox="0 0 507.447 259.574"><path d="M499.48 122.576l-54.515-54.514c-3.306-3.306-8.715-3.306-12.02 0-3.307 3.306-3.307 8.715 0 12.02l48.502 48.504-48.503 48.503c-3.306 3.305-3.306 8.714 0 12.02 3.306 3.306 8.715 3.306 12.02 0l54.515-54.514c3.305-3.305 3.305-8.714 0-12.02zM25.185 128.587l48.503-48.503c3.306-3.306 3.306-8.715 0-12.02-3.306-3.307-8.715-3.307-12.02 0L7.152 122.575c-3.306 3.306-3.306 8.715 0 12.02l54.514 54.515c3.306 3.307 8.715 3.307 12.02 0 3.307-3.305 3.307-8.714 0-12.02l-48.502-48.503z" fill="#20245C"/><path d="M251.696 252.15h-.066c-13.85 0-26.848-5.387-36.59-15.13l-87.66-87.67c-15.586-15.586-24.17-36.392-24.17-58.575s8.584-42.987 24.17-58.573l.56-.56c15.345-15.346 35.723-24.345 57.383-25.343 21.512-.993 42.49 5.962 59.065 19.58 1.675 1.376 36.026 31.894 38.225 34.094 3.32 3.32 3.32 8.7 0 12.02-3.313 3.312-8.68 3.32-12.002.02-2.002-1.942-34.45-30.868-37.02-33.005-13.314-10.938-30.176-16.522-47.485-15.73-17.416.802-33.802 8.04-46.14 20.377l-.56.56c-12.38 12.378-19.194 28.91-19.194 46.553 0 17.642 6.816 34.174 19.192 46.55L227.06 225c6.533 6.53 15.262 10.15 24.58 10.15h.046c9.33 0 18.06-3.618 24.592-10.15l87.658-87.67c12.375-12.375 19.19-28.912 19.19-46.554 0-17.643-6.815-34.177-19.19-46.553l-.565-.566c-20.6-20.602-44.447-26.423-68.957-16.834-5.523 2.16-9.484 3.822-14.055 7.112-3.812 2.74-9.123 1.875-11.865-1.933-2.742-3.81-1.877-9.122 1.933-11.865 6.163-4.436 11.48-6.677 17.792-9.147 30.834-12.064 61.795-4.733 87.175 20.646l.565.565c15.584 15.585 24.168 36.386 24.168 58.57s-8.584 42.983-24.17 58.57l-87.66 87.68c-9.74 9.743-22.74 15.13-36.6 15.13z" fill="#E92E71"/></svg>