<svg xmlns="http://www.w3.org/2000/svg" viewBox="0 0 346.809 319.149"><path d="M171.404 227.07c-27.966 0-50.718-22.753-50.718-50.72s22.752-50.716 50.718-50.716 50.718 22.75 50.718 50.717-22.752 50.72-50.718 50.72zm0-85.436c-19.144 0-34.718 15.574-34.718 34.717 0 19.145 15.574 34.72 34.718 34.72s34.718-15.575 34.718-34.72c0-19.142-15.574-34.716-34.718-34.716z" fill="#20245C"/><path d="M173.404 78.423c-20.44 0-37.07-16.63-37.07-37.07s16.63-37.073 37.07-37.073 37.07 16.63 37.07 37.07-16.628 37.073-37.07 37.073zm0-58.143c-11.62 0-21.07 9.453-21.07 21.07s9.45 21.072 21.07 21.072 21.07-9.453 21.07-21.07-9.45-21.072-21.07-21.072z" fill="#E92E71"/><circle cx="171.404" cy="102.351" r="9.535" fill="#20245C"/><circle cx="227.404" cy="232.351" r="9.535" fill="#20245C"/><circle cx="116.404" cy="231.351" r="9.535" fill="#20245C"/><path d="M66.404 309.423c-20.44 0-37.07-16.63-37.07-37.072s16.63-37.07 37.07-37.07 37.07 16.63 37.07 37.07-16.628 37.073-37.07 37.073zm0-58.143c-11.62 0-21.07 9.452-21.07 21.07s9.45 21.073 21.07 21.073 21.07-9.453 21.07-21.072-9.45-21.07-21.07-21.07zM280.404 311.423c-20.44 0-37.07-16.63-37.07-37.072s16.63-37.07 37.07-37.07 37.07 16.63 37.07 37.07-16.628 37.073-37.07 37.073zm0-58.143c-11.62 0-21.07 9.452-21.07 21.07s9.45 21.073 21.07 21.073 21.07-9.453 21.07-21.072-9.45-21.07-21.07-21.07z" fill="#E92E71"/><path d="M299.404 169.423c-20.44 0-37.07-16.63-37.07-37.072s16.63-37.07 37.07-37.07 37.07 16.63 37.07 37.07-16.628 37.073-37.07 37.073zm0-58.143c-11.62 0-21.07 9.452-21.07 21.07s9.45 21.073 21.07 21.073 21.07-9.453 21.07-21.072-9.45-21.07-21.07-21.07zM43.404 169.423c-20.44 0-37.07-16.63-37.07-37.072s16.63-37.07 37.07-37.07 37.07 16.63 37.07 37.07-16.628 37.073-37.07 37.073zm0-58.143c-11.62 0-21.07 9.452-21.07 21.07s9.45 21.073 21.07 21.073 21.07-9.453 21.07-21.072-9.45-21.07-21.07-21.07z" fill="#20245C"/><path fill="#20245C" d="M266.454 136.667l4.134 15.456-54.595 14.604-4.135-15.456zM76.984 136.672l54.596 14.604-4.135 15.457L72.85 152.13z"/></svg>