<svg xmlns="http://www.w3.org/2000/svg" viewBox="0 0 240.426 385.106"><path d="M173.305 255.968c-3.306 3.306-8.715 3.306-12.02 0l-61.586-61.585c-3.307-3.306-3.307-8.715 0-12.02 3.305-3.307 8.714-3.307 12.02 0l61.585 61.584c3.306 3.306 3.306 8.715 0 12.02z" fill="#E92E71"/><path d="M169.34 252.17h-68.806c-4.675 0-8.194 3.942-8.194 8.617v-.06c0 4.676 3.52 8.442 8.194 8.442h77.094c4.675 0 8.71-3.59 8.71-8.266V183.81c0-4.675-3.86-8.64-8.534-8.64h.088c-4.675 0-8.553 3.965-8.553 8.64v68.36zM69.657 88.372c3.306-3.306 8.715-3.306 12.02 0l61.586 61.585c3.306 3.306 3.306 8.715 0 12.02-3.306 3.307-8.715 3.307-12.02 0l-61.586-61.584c-3.305-3.305-3.305-8.715 0-12.02z" fill="#E92E71"/><path d="M73.34 92.17h69.088c4.675 0 7.912-3.942 7.912-8.617v.06c0-4.676-3.237-8.442-7.912-8.442H65.334c-4.675 0-8.993 3.59-8.993 8.266v77.094c0 4.675 4.143 8.64 8.818 8.64h-.088c4.675 0 8.27-3.965 8.27-8.64V92.17z" fill="#E92E71"/><path d="M184.877 23.24c17.78 0 32.245 14.465 32.245 32.245v275.107c0 17.78-14.465 32.245-32.245 32.245H57.495c-17.78 0-32.245-14.465-32.245-32.245V55.485c0-17.78 14.465-32.245 32.245-32.245h127.382m0-17H57.495C30.41 6.24 8.25 28.4 8.25 55.485v275.107c0 27.085 22.16 49.245 49.245 49.245h127.382c27.085 0 49.245-22.16 49.245-49.245V55.485c0-27.085-22.16-49.245-49.245-49.245z" fill="#20245C"/><circle cx="121.186" cy="321.658" r="21.131" fill="#20245C"/></svg>