<?xml version="1.0" encoding="iso-8859-1"?>
<!-- Generator: Adobe Illustrator 19.1.0, SVG Export Plug-In . SVG Version: 6.00 Build 0)  -->
<svg version="1.1" id="Layer_1" xmlns="http://www.w3.org/2000/svg" xmlns:xlink="http://www.w3.org/1999/xlink" x="0px" y="0px"
	 viewBox="0 0 342.553 319.149" style="enable-background:new 0 0 342.553 319.149;" xml:space="preserve">
<path style="fill:#FFFFFF;" d="M173.043,229.962c-27.966,0-50.718-22.752-50.718-50.718s22.752-50.717,50.718-50.717
	s50.718,22.751,50.718,50.717S201.008,229.962,173.043,229.962z M173.043,144.527c-19.144,0-34.718,15.574-34.718,34.717
	c0,19.144,15.574,34.718,34.718,34.718s34.718-15.574,34.718-34.718C207.76,160.101,192.186,144.527,173.043,144.527z"/>
<path style="fill:#E92E71;" d="M175.043,81.316c-20.441,0-37.071-16.63-37.071-37.071s16.63-37.071,37.071-37.071
	s37.071,16.63,37.071,37.071S195.484,81.316,175.043,81.316z M175.043,23.174c-11.619,0-21.071,9.453-21.071,21.071
	s9.452,21.071,21.071,21.071s21.071-9.453,21.071-21.071S186.662,23.174,175.043,23.174z"/>
<circle style="fill:#FFFFFF;" cx="173.043" cy="105.245" r="9.535"/>
<circle style="fill:#FFFFFF;" cx="229.043" cy="235.245" r="9.535"/>
<circle style="fill:#FFFFFF;" cx="118.043" cy="234.245" r="9.535"/>
<path style="fill:#E92E71;" d="M68.043,312.317c-20.441,0-37.071-16.631-37.071-37.072s16.63-37.071,37.071-37.071
	s37.071,16.63,37.071,37.071S88.484,312.317,68.043,312.317z M68.043,254.173c-11.619,0-21.071,9.452-21.071,21.071
	s9.452,21.072,21.071,21.072s21.071-9.453,21.071-21.072S79.662,254.173,68.043,254.173z"/>
<path style="fill:#E92E71;" d="M282.043,314.317c-20.441,0-37.071-16.631-37.071-37.072s16.63-37.071,37.071-37.071
	s37.071,16.63,37.071,37.071S302.484,314.317,282.043,314.317z M282.043,256.173c-11.619,0-21.071,9.452-21.071,21.071
	s9.452,21.072,21.071,21.072s21.071-9.453,21.071-21.072S293.662,256.173,282.043,256.173z"/>
<path style="fill:#FFFFFF;" d="M301.043,172.317c-20.441,0-37.071-16.631-37.071-37.072s16.63-37.071,37.071-37.071
	s37.071,16.63,37.071,37.071S321.484,172.317,301.043,172.317z M301.043,114.173c-11.619,0-21.071,9.452-21.071,21.071
	s9.452,21.072,21.071,21.072s21.071-9.453,21.071-21.072S312.662,114.173,301.043,114.173z"/>
<path style="fill:#FFFFFF;" d="M45.043,172.317c-20.441,0-37.071-16.631-37.071-37.072s16.63-37.071,37.071-37.071
	s37.071,16.63,37.071,37.071S65.484,172.317,45.043,172.317z M45.043,114.173c-11.619,0-21.071,9.452-21.071,21.071
	s9.452,21.072,21.071,21.072s21.071-9.453,21.071-21.072S56.662,114.173,45.043,114.173z"/>
<rect x="234.86" y="126.343" transform="matrix(0.2584 0.966 -0.966 0.2584 329.4514 -119.961)" style="fill:#FFFFFF;" width="16.001" height="56.517"/>
<rect x="75.602" y="146.601" transform="matrix(0.966 0.2584 -0.2584 0.966 43.4733 -21.5858)" style="fill:#FFFFFF;" width="56.517" height="16.001"/>
</svg>
