<?xml version="1.0" encoding="utf-8"?>
<!-- Generator: Adobe Illustrator 19.2.0, SVG Export Plug-In . SVG Version: 6.00 Build 0)  -->
<svg version="1.1" id="Layer_1" xmlns="http://www.w3.org/2000/svg" xmlns:xlink="http://www.w3.org/1999/xlink" x="0px" y="0px"
	 viewBox="0 0 824.7 128.2" style="enable-background:new 0 0 824.7 128.2;" xml:space="preserve">
<style type="text/css">
	.st0{fill:#fff;}
	.st1{enable-background:new    ;}
</style>
<g>
	<path class="st0" d="M85.2,74.6c0.1,0,0.1,0,0.2,0c2.6,0,15.6-0.5,25.3-9.9c4.4-4.3,9.7-12.2,9.7-25.2C120.3,12,99.4,2,85.3,2H14.3
		c-4,0-7.6,2.4-9.2,6.1s-0.8,8,2,10.8l27.9,29c3.8,4,10.2,4.1,14.1,0.3c4-3.8,4.1-10.2,0.3-14.1L37.8,22h47.5c0,0,4.5,0.1,8.5,2.6
		c4.4,2.8,6.5,7.7,6.5,14.9c0,8.5-3.7,11.5-6.5,13c-4,2.1-8.4,2.2-8.4,2.2c-0.1,0-0.1,0-0.2,0H10.7c-5.5,0-10,4.5-10,10
		c0,5.5,4.5,10,10,10h29.5v40.6c0,5.5,4.5,10,10,10s10-4.5,10-10V74.6H85.2z"/>
	<path class="st0" d="M92.5,81.8c-3.4-4.3-9.7-5-14.1-1.6c-4.3,3.4-5,9.7-1.6,14.1l21.8,27.3c2,2.5,4.9,3.8,7.8,3.8
		c2.2,0,4.4-0.7,6.2-2.2c4.3-3.4,5-9.7,1.6-14.1L92.5,81.8z"/>
</g>
<g class="st1">
	<path class="st0" d="M214.9,104.2l-19.7-30h-16.2v30H166V26h35.1c14.9,0,25.5,9.4,25.5,24.1c0,12-7,20.4-17.7,23l20.6,31H214.9z
		 M179.1,63.3h19.8c9,0,14.9-4.6,14.9-13.2c0-8.7-5.8-13.3-15-13.3h-19.7V63.3z"/>
	<path class="st0" d="M286.6,94.7c-8.1,8.4-15.4,11.1-24.4,11.1c-17.4,0-28.3-11.4-28.3-28.9c0-17.3,10.3-29.7,27.2-29.7
		c16.4,0,25.4,10.5,25.4,27.2c0,1.4-0.1,3.9-0.2,5h-40.5c0.9,9,5.9,16.3,16.6,16.3c6.8,0,10.6-2.3,17.3-8.3L286.6,94.7z M246.1,70.5
		h28.5c-0.4-8.4-5.3-13.8-13.9-13.8C252.6,56.7,247.6,62,246.1,70.5z"/>
	<path class="st0" d="M313.9,42.7v6.3h13v9.1h-13v46.1h-12.1V58.1H292v-9.1h9.8v-7.3c0-11.6,6.2-17.5,17.4-17.5
		c3.4,0,6.8,0.3,11.4,2l-2.2,9c-3.2-0.8-5.2-1-7-1C316.2,34.2,313.9,36.5,313.9,42.7z"/>
	<path class="st0" d="M382.9,48.9v55.2h-11.1v-6.3c-3,4.8-8.5,7.9-16.4,7.9c-14,0-19.7-7.7-19.7-17.7V48.9h12.1v35.9
		c0,6.6,3.4,10.6,10.2,10.6c7.4,0,12.8-4.3,12.8-13V48.9H382.9z"/>
	<path class="st0" d="M446.6,48.9v53.1c0,15.2-10.9,23.4-26.2,23.4c-8.9,0-17.3-2.4-25.7-8l5.9-8.8c7.5,4.5,12.8,6.8,19.7,6.8
		c8,0,14.4-4,14.4-14.4v-5.8c-3.5,5-8.9,7.9-16.8,7.9c-14.1,0-24.2-11.4-24.2-28.1c0-16.4,10.1-27.9,24.2-27.9
		c8.4,0,14,3.3,17.5,8.8v-7H446.6z M435,75.1c0-10.5-5.9-17.6-14.6-17.6c-9,0-14.5,7.2-14.5,17.6c0,10.6,5.5,17.8,14.5,17.8
		C429.1,92.9,435,85.7,435,75.1z"/>
	<path class="st0" d="M509.7,94.7c-8.1,8.4-15.4,11.1-24.4,11.1c-17.4,0-28.3-11.4-28.3-28.9c0-17.3,10.3-29.7,27.2-29.7
		c16.4,0,25.4,10.5,25.4,27.2c0,1.4-0.1,3.9-0.2,5h-40.5c0.9,9,5.9,16.3,16.6,16.3c6.8,0,10.6-2.3,17.3-8.3L509.7,94.7z M469.2,70.5
		h28.5c-0.4-8.4-5.3-13.8-13.9-13.8C475.7,56.7,470.8,62,469.2,70.5z"/>
	<path class="st0" d="M570.3,94.7c-8.1,8.4-15.4,11.1-24.4,11.1c-17.4,0-28.3-11.4-28.3-28.9c0-17.3,10.3-29.7,27.2-29.7
		c16.4,0,25.4,10.5,25.4,27.2c0,1.4-0.1,3.9-0.2,5h-40.5c0.9,9,5.9,16.3,16.6,16.3c6.8,0,10.6-2.3,17.3-8.3L570.3,94.7z M529.8,70.5
		h28.5c-0.4-8.4-5.3-13.8-13.9-13.8C536.3,56.7,531.3,62,529.8,70.5z"/>
</g>
<g class="st1">
	<path class="st0" d="M664.9,37.2h-23.8v67h-13v-67h-23.7V26h60.4V37.2z"/>
</g>
<g class="st1">
	<path class="st0" d="M707.6,94.7c-8.1,8.4-15.4,11.1-24.4,11.1c-17.4,0-28.3-11.4-28.3-28.9c0-17.3,10.3-29.7,27.2-29.7
		c16.4,0,25.4,10.5,25.4,27.2c0,1.4-0.1,3.9-0.2,5h-40.5c0.9,9,5.9,16.3,16.6,16.3c6.8,0,10.6-2.3,17.3-8.3L707.6,94.7z M667.1,70.5
		h28.5c-0.4-8.4-5.3-13.8-13.9-13.8C673.6,56.7,668.6,62,667.1,70.5z"/>
	<path class="st0" d="M743.1,57.4c-10.2,0-15.4,9-15.4,19.1c0,10.1,5.2,18.9,15.4,18.9c5.7,0,9.7-2.2,15.7-8.8l7.9,6.7
		c-7.6,9.6-14.4,12.4-23.8,12.4c-16.5,0-27.6-11.3-27.6-29.3c0-18,11.4-29.4,27.8-29.4c8.9,0,15.6,2.6,22.7,10.6l-7.7,7.4
		C752,58.8,748,57.4,743.1,57.4z"/>
	<path class="st0" d="M823.3,66.3v37.9h-12.1V70.1c0-8.1-4.1-12.5-11.4-12.5c-7.2,0-12.4,5.4-12.4,12.9v33.8h-12.1V26h12.1v28.4
		c3.5-4.6,9.1-7.3,16.2-7.3C816.6,47.2,823.3,55.4,823.3,66.3z"/>
</g>
</svg>
